<svg width="40" height="41" viewBox="0 0 40 41" fill="none" xmlns="http://www.w3.org/2000/svg">
<rect y="0.563477" width="40" height="40" rx="8" fill="#71C3F2"/>
<path d="M23.3327 28.0635V14.7301C23.3327 14.2881 23.1571 13.8642 22.8445 13.5516C22.532 13.2391 22.108 13.0635 21.666 13.0635H18.3327C17.8907 13.0635 17.4667 13.2391 17.1542 13.5516C16.8416 13.8642 16.666 14.2881 16.666 14.7301V28.0635M13.3327 16.3968H26.666C27.5865 16.3968 28.3327 17.143 28.3327 18.0635V26.3968C28.3327 27.3173 27.5865 28.0635 26.666 28.0635H13.3327C12.4122 28.0635 11.666 27.3173 11.666 26.3968V18.0635C11.666 17.143 12.4122 16.3968 13.3327 16.3968Z" stroke="white" stroke-width="1.66667" stroke-linecap="round" stroke-linejoin="round"/>
</svg>
