<svg width="40" height="41" viewBox="0 0 40 41" fill="none" xmlns="http://www.w3.org/2000/svg">
<rect y="0.563477" width="40" height="40" rx="8" fill="#825CFB"/>
<path d="M27.5 20.1468C27.5029 21.2467 27.2459 22.3317 26.75 23.3135C26.162 24.49 25.2581 25.4795 24.1395 26.1712C23.021 26.863 21.7319 27.2297 20.4167 27.2302C19.3168 27.233 18.2318 26.9761 17.25 26.4802L12.5 28.0635L14.0833 23.3135C13.5874 22.3317 13.3305 21.2467 13.3333 20.1468C13.3338 18.8316 13.7005 17.5425 14.3923 16.424C15.084 15.3054 16.0735 14.4015 17.25 13.8135C18.2318 13.3176 19.3168 13.0606 20.4167 13.0635H20.8333C22.5703 13.1593 24.2109 13.8925 25.4409 15.1225C26.671 16.3526 27.4042 17.9932 27.5 19.7302V20.1468Z" stroke="white" stroke-width="1.66667" stroke-linecap="round" stroke-linejoin="round"/>
</svg>
