<svg width="20" height="21" viewBox="0 0 20 21" fill="none" xmlns="http://www.w3.org/2000/svg">
<g clip-path="url(#clip0_944_16126)">
<path d="M18.3327 9.29702V10.0637C18.3317 11.8607 17.7498 13.6093 16.6738 15.0485C15.5978 16.4878 14.0854 17.5408 12.3621 18.0503C10.6389 18.5598 8.79707 18.4986 7.11141 17.8758C5.42575 17.2531 3.98656 16.1021 3.00848 14.5946C2.0304 13.0871 1.56584 11.3037 1.68408 9.51062C1.80232 7.71749 2.49702 6.01063 3.66458 4.64458C4.83214 3.27854 6.41 2.32651 8.16284 1.93048C9.91568 1.53445 11.7496 1.71564 13.391 2.44702M18.3327 3.39702L9.99935 11.7387L7.49935 9.23869" stroke="#3E2083" stroke-width="1.66667" stroke-linecap="round" stroke-linejoin="round"/>
</g>
<defs>
<clipPath id="clip0_944_16126">
<rect width="20" height="20" fill="white" transform="translate(0 0.0634766)"/>
</clipPath>
</defs>
</svg>
