<svg width="24" height="25" viewBox="0 0 24 25" fill="none" xmlns="http://www.w3.org/2000/svg">
<path d="M20 7.5H17.8486C17.3511 7.5 17 6.99751 17 6.5C17 4.84315 15.6569 3.5 14 3.5C12.3431 3.5 11 4.84315 11 6.5C11 6.99751 10.6488 7.5 10.1513 7.5H8C7.44771 7.5 7 7.94772 7 8.5V10.6513C7 11.1488 6.49751 11.5 6 11.5C4.34315 11.5 3 12.8431 3 14.5C3 16.1569 4.34315 17.5 6 17.5C6.49751 17.5 7 17.8511 7 18.3486V20.5C7 21.0523 7.44771 21.5 8 21.5L20 21.5C20.5523 21.5 21 21.0523 21 20.5V18.3486C21 17.8511 20.4975 17.5 20 17.5C18.3431 17.5 17 16.1569 17 14.5C17 12.8431 18.3431 11.5 20 11.5C20.4975 11.5 21 11.1488 21 10.6513L21 8.5C21 7.94772 20.5523 7.5 20 7.5Z" stroke="#FD6E1D" stroke-width="1.5" stroke-linecap="round" stroke-linejoin="round"/>
</svg>
