<svg width="32" height="32" viewBox="0 0 32 32" fill="none" xmlns="http://www.w3.org/2000/svg">
<path d="M11.666 2.66675C10.8705 2.66683 10.1075 2.98312 9.54492 3.54565L9.3457 3.76538C8.90828 4.29922 8.66602 4.97054 8.66602 5.66675V22.9998C8.66602 23.7954 8.98231 24.5592 9.54492 25.1218C10.1074 25.6843 10.8706 25.9997 11.666 25.9998H23.666C24.06 25.9998 24.4505 25.922 24.8145 25.7712C25.1783 25.6205 25.5096 25.4003 25.7881 25.1218C25.9969 24.913 26.1727 24.6743 26.3115 24.4148L26.4375 24.1482C26.5883 23.7842 26.666 23.3937 26.666 22.9998V5.66675C26.666 5.27278 26.5883 4.88229 26.4375 4.51831C26.3244 4.24537 26.1721 3.99098 25.9854 3.76343L25.7881 3.54565C25.5095 3.26711 25.1784 3.04603 24.8145 2.89526C24.4505 2.7445 24.06 2.66675 23.666 2.66675V0.666748C24.3226 0.666748 24.9734 0.796334 25.5801 1.04761C26.1866 1.29888 26.7379 1.66739 27.2021 2.13159C27.6663 2.59581 28.0349 3.14717 28.2861 3.75366C28.5373 4.36017 28.666 5.01029 28.666 5.66675V22.9998C28.666 23.6564 28.5374 24.3072 28.2861 24.9138C28.0349 25.5204 27.6664 26.0716 27.2021 26.5359C26.7379 27.0001 26.1867 27.3686 25.5801 27.6199C25.4288 27.6825 25.2743 27.7366 25.1182 27.7839L25.04 28.0056C24.6951 28.9803 24.0562 29.8248 23.2119 30.4216C22.3677 31.0184 21.3591 31.3386 20.3252 31.3386H11.666C9.456 31.3385 7.33616 30.4609 5.77344 28.8982C4.30836 27.4331 3.44496 25.4783 3.34277 23.4187L3.33301 23.0056V8.99976C3.33315 6.81927 4.72909 4.96673 6.67383 4.28296L6.88379 4.20874C7.12074 3.43156 7.54586 2.71664 8.13086 2.13159C9.06846 1.19399 10.3401 0.666834 11.666 0.666748V2.66675ZM12.666 21.9998H22.666V6.66675H12.666V21.9998ZM23.666 0.666748V2.66675H11.666V0.666748H23.666ZM5.33301 23.0056L5.34082 23.3191C5.41839 24.8846 6.07489 26.3705 7.18848 27.4841C8.37609 28.6715 9.98663 29.3385 11.666 29.3386H20.3252C20.9456 29.3386 21.551 29.146 22.0576 28.7878C22.5641 28.4297 22.9473 27.9234 23.1543 27.3386H11.666C10.5169 27.3385 9.41512 26.8817 8.60254 26.0691C7.78997 25.2565 7.33306 24.1548 7.33301 23.0056V8.99976L7.33691 6.16968C6.1691 6.58036 5.33315 7.69329 5.33301 8.99976V23.0056ZM24.666 22.9998C24.666 23.265 24.5606 23.5193 24.373 23.7068C24.1855 23.8943 23.9312 23.9998 23.666 23.9998H11.666C11.1142 23.9996 10.666 23.5516 10.666 22.9998V5.66675C10.666 5.40161 10.7715 5.14724 10.959 4.95972C11.1464 4.77226 11.4009 4.66683 11.666 4.66675H23.666C23.9312 4.66675 24.1855 4.77228 24.373 4.95972C24.4434 5.03012 24.5028 5.10977 24.5488 5.19604C24.564 5.22454 24.5774 5.254 24.5898 5.28394C24.6023 5.31399 24.6136 5.34472 24.623 5.37573C24.6515 5.46924 24.666 5.56723 24.666 5.66675V22.9998Z" fill="#1D003B"/>
</svg>
