<svg width="40" height="41" viewBox="0 0 40 41" fill="none" xmlns="http://www.w3.org/2000/svg">
<rect y="0.563477" width="40" height="40" rx="8" fill="#FD6E1D"/>
<path d="M19.9993 28.8966C24.6017 28.8966 28.3327 25.1657 28.3327 20.5633C28.3327 15.9609 24.6017 12.23 19.9993 12.23C15.397 12.23 11.666 15.9609 11.666 20.5633C11.666 25.1657 15.397 28.8966 19.9993 28.8966Z" stroke="white" stroke-width="1.66667" stroke-linecap="round" stroke-linejoin="round"/>
<path d="M19.9993 25.5633C22.7608 25.5633 24.9993 23.3247 24.9993 20.5633C24.9993 17.8019 22.7608 15.5633 19.9993 15.5633C17.2379 15.5633 14.9993 17.8019 14.9993 20.5633C14.9993 23.3247 17.2379 25.5633 19.9993 25.5633Z" stroke="white" stroke-width="1.66667" stroke-linecap="round" stroke-linejoin="round"/>
<path d="M19.9993 22.23C20.9198 22.23 21.666 21.4838 21.666 20.5633C21.666 19.6428 20.9198 18.8966 19.9993 18.8966C19.0789 18.8966 18.3327 19.6428 18.3327 20.5633C18.3327 21.4838 19.0789 22.23 19.9993 22.23Z" stroke="white" stroke-width="1.66667" stroke-linecap="round" stroke-linejoin="round"/>
</svg>
