<svg width="40" height="41" viewBox="0 0 40 41" fill="none" xmlns="http://www.w3.org/2000/svg">
<rect y="0.563477" width="40" height="40" rx="8" fill="#231C07"/>
<path d="M21.1033 19.4593L14.5332 26.0295M15.2422 21.2613L12.0241 20.5011C11.67 20.4174 11.5455 19.9779 11.802 19.7205L14.3613 17.1612C14.5332 16.9893 14.7664 16.8908 15.0108 16.8889L17.8963 16.8638M21.5308 13.562C23.6784 15.0266 25.5361 16.8842 27.0007 19.0319M19.3005 25.3204L20.0606 28.5386C20.1443 28.8927 20.5838 29.0172 20.8413 28.7607L23.4006 26.2014C23.5725 26.0295 23.671 25.7962 23.6728 25.5518L23.6979 22.6664M27.5517 17.5217L28.3026 13.9086C28.5071 12.9254 27.6372 12.0556 26.654 12.26L23.0409 13.0109C21.9769 13.2321 21.0011 13.759 20.2335 14.5275L17.269 17.4911C16.1381 18.622 15.4021 20.0885 15.1697 21.6711L15.1595 21.7389C15.0127 22.7491 15.351 23.7685 16.0721 24.4906C16.7932 25.2117 17.8136 25.55 18.8238 25.4022L18.8916 25.392C20.4742 25.1606 21.9406 24.4237 23.0716 23.2927L26.0351 20.3292C26.8037 19.5616 27.3306 18.5858 27.5517 17.5217Z" stroke="white" stroke-width="1.66667" stroke-linecap="round" stroke-linejoin="round"/>
</svg>
