<svg width="24" height="24" viewBox="0 0 24 24" fill="none" xmlns="http://www.w3.org/2000/svg">
<path d="M12 0C5.38313 0 0 5.38313 0 12C0 18.6169 5.38313 24 12 24C18.6169 24 24 18.6169 24 12C24 5.38313 18.6169 0 12 0ZM16.5193 15.1611C16.8937 15.5356 16.8937 16.1427 16.5193 16.5196C16.3321 16.7068 16.0849 16.8004 15.8401 16.8004C15.5953 16.8004 15.3481 16.7068 15.1609 16.5196L12.0001 13.3587L8.83924 16.5196C8.65204 16.7068 8.40482 16.8004 8.16004 16.8004C7.91526 16.8004 7.66803 16.7068 7.48085 16.5196C7.10643 16.1451 7.10643 15.5379 7.48085 15.1611L10.6417 12.0003L7.48085 8.83949C7.10643 8.46507 7.10643 7.85788 7.48085 7.48106C7.85527 7.10664 8.46485 7.10664 8.83927 7.48106L12.0001 10.6419L15.1609 7.48106C15.5353 7.10664 16.1449 7.10664 16.5193 7.48106C16.8938 7.85548 16.8938 8.46267 16.5193 8.83949L13.3585 12.0003L16.5193 15.1611Z" fill="#231C07"/>
</svg>
