<svg width="40" height="41" viewBox="0 0 40 41" fill="none" xmlns="http://www.w3.org/2000/svg">
<rect y="0.563477" width="40" height="40" rx="8" fill="#3E2083"/>
<path d="M28.3327 19.797V20.5637C28.3317 22.3607 27.7498 24.1093 26.6738 25.5485C25.5978 26.9878 24.0854 28.0408 22.3621 28.5503C20.6389 29.0598 18.7971 28.9986 17.1114 28.3758C15.4258 27.7531 13.9866 26.6021 13.0085 25.0946C12.0304 23.5871 11.5658 21.8037 11.6841 20.0106C11.8023 18.2175 12.497 16.5106 13.6646 15.1446C14.8321 13.7785 16.41 12.8265 18.1628 12.4305C19.9157 12.0344 21.7496 12.2156 23.391 12.947M28.3327 13.897L19.9994 22.2387L17.4994 19.7387" stroke="white" stroke-width="1.66667" stroke-linecap="round" stroke-linejoin="round"/>
</svg>
