<svg width="24" height="25" viewBox="0 0 24 25" fill="none" xmlns="http://www.w3.org/2000/svg">
<path d="M15 10.4998L11 14.4998L8.99995 12.4998M13.246 3.95879L14.467 4.99929C14.7746 5.26143 15.1566 5.41991 15.5594 5.45206L17.1585 5.5795C18.0986 5.65452 18.8453 6.4008 18.9204 7.34093L19.0475 8.94024C19.0797 9.3431 19.2387 9.72559 19.5008 10.0332L20.5409 11.2538C21.1526 11.9716 21.1527 13.0275 20.541 13.7454L19.5009 14.9662C19.2388 15.2738 19.08 15.6564 19.0478 16.0593L18.9199 17.6583C18.8449 18.5984 18.0993 19.3452 17.1591 19.4202L15.5595 19.5478C15.1567 19.58 14.7744 19.7381 14.4667 20.0002L13.246 21.0407C12.5282 21.6525 11.4717 21.6526 10.7539 21.0409L9.53316 20.0003C9.22555 19.7382 8.84325 19.5798 8.44038 19.5477L6.84077 19.4202C5.90064 19.3452 5.15505 18.5986 5.08003 17.6585L4.9521 16.0594C4.91995 15.6565 4.76111 15.2742 4.49898 14.9666L3.45894 13.7454C2.84721 13.0276 2.84693 11.972 3.45865 11.2542L4.49963 10.033C4.76176 9.72541 4.91908 9.34311 4.95122 8.94024L5.07915 7.34112C5.15417 6.40099 5.90192 5.65442 6.84205 5.5794L8.43989 5.45196C8.84276 5.41981 9.22525 5.26146 9.53285 4.99932L10.754 3.95879C11.4718 3.34707 12.5282 3.34707 13.246 3.95879Z" stroke="#FD6E1D" stroke-width="1.5" stroke-linecap="round" stroke-linejoin="round"/>
</svg>
