<svg width="33" height="32" viewBox="0 0 33 32" fill="none" xmlns="http://www.w3.org/2000/svg">
<path d="M25.0379 20.6017C26.3044 18.5419 27.0372 16.1156 27.0372 13.5186C27.0372 6.05136 20.9859 0 13.5186 0C6.05136 0 0 6.05492 0 13.5186C0 20.9823 6.05136 27.0372 13.5186 27.0372C16.1263 27.0372 18.5596 26.3008 20.623 25.0237L26.0909 30.4916L27.5993 32L32.0178 27.5815L25.0379 20.6017ZM20.8507 22.2275C20.2993 22.6935 19.7016 23.1097 19.0648 23.4655C17.4248 24.3798 15.5322 24.9027 13.5186 24.9027C7.23246 24.9027 2.13452 19.8048 2.13452 13.5186C2.13452 7.23246 7.23246 2.13452 13.5186 2.13452C19.8048 2.13452 24.9027 7.23246 24.9027 13.5186C24.9027 15.5215 24.3869 17.4034 23.4762 19.0399C23.124 19.6767 22.7148 20.2744 22.2452 20.8258C21.8255 21.331 21.3559 21.8006 20.8507 22.2275ZM22.3626 23.7394C22.8643 23.3125 23.3303 22.8429 23.7608 22.3413L29.001 27.5815L27.6029 28.9797L22.3626 23.7394Z" fill="#1D003B"/>
<path d="M13.5183 4.26929C8.40971 4.26929 4.26874 8.41025 4.26874 13.5189C4.26874 18.6275 8.40971 22.7685 13.5183 22.7685C18.6269 22.7685 22.7679 18.6275 22.7679 13.5189C22.7679 8.41025 18.6269 4.26929 13.5183 4.26929ZM13.5183 20.6339C9.58725 20.6339 6.40326 17.4499 6.40326 13.5189C6.40326 9.5878 9.58725 6.40381 13.5183 6.40381C17.4494 6.40381 20.6334 9.5878 20.6334 13.5189C20.6334 17.4499 17.4494 20.6339 13.5183 20.6339Z" fill="#1D003B"/>
</svg>
