<svg width="32" height="32" viewBox="0 0 32 32" fill="none" xmlns="http://www.w3.org/2000/svg">
<path fill-rule="evenodd" clip-rule="evenodd" d="M16 26.9474C22.046 26.9474 26.9474 22.046 26.9474 16C26.9474 9.95392 22.046 5.05262 16 5.05262C9.95392 5.05262 5.05262 9.95392 5.05262 16C5.05262 22.046 9.95392 26.9474 16 26.9474ZM16 28.6316C22.9762 28.6316 28.6316 22.9762 28.6316 16C28.6316 9.02376 22.9762 3.36841 16 3.36841C9.02376 3.36841 3.36841 9.02376 3.36841 16C3.36841 22.9762 9.02376 28.6316 16 28.6316Z" fill="#1D003B"/>
<path fill-rule="evenodd" clip-rule="evenodd" d="M19.9673 21.0526C17.666 22.8992 14.3338 22.8992 12.0325 21.0526H19.9673ZM21.8946 20.2105V19.3684H10.1052V20.2105L9.41528 20.6934C12.615 25.2645 19.3848 25.2645 22.5845 20.6934L21.8946 20.2105Z" fill="#1D003B"/>
<path fill-rule="evenodd" clip-rule="evenodd" d="M16 30.3158C23.9064 30.3158 30.3158 23.9064 30.3158 16C30.3158 8.09361 23.9064 1.68421 16 1.68421C8.09361 1.68421 1.68421 8.09361 1.68421 16C1.68421 23.9064 8.09361 30.3158 16 30.3158ZM16 32C24.8366 32 32 24.8366 32 16C32 7.16344 24.8366 0 16 0C7.16344 0 0 7.16344 0 16C0 24.8366 7.16344 32 16 32Z" fill="#1D003B"/>
<path fill-rule="evenodd" clip-rule="evenodd" d="M12.6316 13.4736C13.0967 13.4736 13.4737 13.0966 13.4737 12.6315C13.4737 12.1665 13.0967 11.7894 12.6316 11.7894C12.1665 11.7894 11.7895 12.1665 11.7895 12.6315C11.7895 13.0966 12.1665 13.4736 12.6316 13.4736ZM12.6316 15.1579C14.0268 15.1579 15.1579 14.0268 15.1579 12.6315C15.1579 11.2363 14.0268 10.1052 12.6316 10.1052C11.2363 10.1052 10.1053 11.2363 10.1053 12.6315C10.1053 14.0268 11.2363 15.1579 12.6316 15.1579Z" fill="#1D003B"/>
<path fill-rule="evenodd" clip-rule="evenodd" d="M19.3684 13.4736C19.8335 13.4736 20.2105 13.0966 20.2105 12.6315C20.2105 12.1665 19.8335 11.7894 19.3684 11.7894C18.9033 11.7894 18.5263 12.1665 18.5263 12.6315C18.5263 13.0966 18.9033 13.4736 19.3684 13.4736ZM19.3684 15.1579C20.7637 15.1579 21.8947 14.0268 21.8947 12.6315C21.8947 11.2363 20.7637 10.1052 19.3684 10.1052C17.9732 10.1052 16.8421 11.2363 16.8421 12.6315C16.8421 14.0268 17.9732 15.1579 19.3684 15.1579Z" fill="#1D003B"/>
</svg>
